# xmcd
#
# Track frame offsets:
#	150
#	21102
#	47192
#	60212
#	79507
#	101967
#
# Disc length: 1635 seconds
#
# Revision: 1
# Processed by: cddbd v1.5.2PL0 Copyright (c) Steve Scherf et al.
# Submitted via: audiograbber 1.83.01
#
DISCID=41066106
DTITLE=Abi Wallenstein and Friends - Hamburg Blues Celebration For Hinz and Kunzt
DYEAR=1998
DGENRE=Blues
TTITLE0=Route 66
TTITLE1=Walkin' The Dog
TTITLE2=Keep Your Hands Off Her
TTITLE3=The Hunter
TTITLE4=Rockin' Shoes
TTITLE5=Shake Your Boogie
EXTD=
EXTT0=
EXTT1=
EXTT2=
EXTT3=
EXTT4=
EXTT5=
PLAYORDER=
